<?xml version="1.0" standalone="no"?>
<!DOCTYPE svg PUBLIC "-//W3C//DTD SVG 20010904//EN"
 "http://www.w3.org/TR/2001/REC-SVG-20010904/DTD/svg10.dtd">
<svg version="1.0" xmlns="http://www.w3.org/2000/svg"
 width="500.000000pt" height="228.000000pt" viewBox="0 0 500.000000 228.000000"
 preserveAspectRatio="xMidYMid meet">

<g transform="translate(0.000000,228.000000) scale(0.100000,-0.100000)"
fill="#000000" stroke="none">
<path d="M0 1140 l0 -1140 2500 0 2500 0 0 1140 0 1140 -2500 0 -2500 0 0
-1140z m4835 -40 l0 -955 -2314 -3 c-1376 -1 -2317 2 -2320 7 -3 5 -5 437 -3
960 l2 951 2318 -2 2317 -3 0 -955z"/>
<path d="M1134 1727 c-2 -7 -3 -107 -2 -222 l3 -210 115 -3 c131 -3 191 9 225
46 46 50 38 128 -17 166 l-22 16 21 22 c52 57 33 145 -39 178 -35 16 -66 20
-161 20 -86 0 -119 -3 -123 -13z m231 -100 c13 -10 16 -21 11 -40 -6 -26 -9
-27 -71 -27 l-65 0 0 40 0 40 53 0 c29 0 61 -6 72 -13z m33 -188 c5 -39 -18
-50 -90 -47 l-63 3 -3 38 -3 38 78 -3 c76 -3 78 -4 81 -29z"/>
<path d="M2045 1708 c-39 -85 -162 -404 -158 -410 5 -10 84 -10 99 0 6 4 14
17 18 30 7 21 13 22 101 22 l94 0 16 -30 c14 -27 20 -30 64 -30 26 0 50 2 53
5 5 5 -21 72 -152 395 -18 44 -19 45 -69 48 -49 3 -51 2 -66 -30z m93 -185
c12 -31 19 -60 16 -65 -7 -11 -81 -10 -88 1 -5 7 3 36 29 109 9 25 23 11 43
-45z"/>
<path d="M2730 1516 l0 -226 129 0 c107 0 137 3 176 20 80 34 97 125 35 185
l-30 29 20 21 c29 31 36 85 16 123 -28 54 -65 66 -213 70 l-133 4 0 -226z
m240 110 c6 -8 10 -25 8 -38 -3 -21 -9 -23 -70 -26 l-68 -3 0 34 c0 18 3 37 7
40 13 14 110 7 123 -7z m28 -184 c6 -40 -14 -52 -88 -52 -67 0 -68 0 -72 28
-7 50 -2 53 80 50 72 -3 77 -5 80 -26z"/>
<path d="M3460 1730 c0 -5 36 -69 81 -141 l80 -131 2 -81 2 -82 50 0 50 0 3
83 c3 81 3 83 64 180 76 122 98 160 98 172 0 12 -90 13 -106 2 -6 -4 -30 -40
-55 -79 -24 -40 -49 -73 -55 -73 -6 0 -16 10 -22 23 -16 29 -43 76 -66 110
-16 24 -25 27 -72 27 -30 0 -54 -4 -54 -10z"/>
<path d="M2130 880 c-73 -15 -116 -44 -157 -105 -71 -107 -29 -252 92 -315 71
-36 157 -34 222 6 128 80 152 242 51 351 -44 47 -142 77 -208 63z m103 -111
c35 -16 57 -60 57 -117 0 -45 -4 -53 -35 -81 -30 -26 -44 -31 -85 -31 -41 0
-55 5 -85 31 -32 28 -35 36 -35 86 0 49 4 59 34 89 29 29 41 34 80 34 25 0 56
-5 69 -11z"/>
<path d="M2957 876 c-58 -16 -114 -59 -144 -112 -31 -54 -32 -154 -2 -204 45
-75 97 -111 176 -125 127 -21 263 94 263 222 -1 149 -146 258 -293 219z m140
-123 c41 -37 55 -81 40 -128 -26 -87 -132 -115 -201 -54 -42 36 -54 82 -35
134 28 75 135 101 196 48z"/>
<path d="M930 868 c0 -13 14 -64 82 -310 l33 -118 57 0 56 0 17 53 c38 117 68
197 74 197 3 0 24 -56 45 -125 l40 -125 56 0 57 0 23 83 c26 95 88 314 96 340
5 15 -2 17 -53 17 l-59 0 -19 -77 c-34 -147 -45 -177 -59 -162 -7 8 -28 65
-47 127 l-34 112 -47 0 -47 0 -42 -130 c-23 -71 -45 -127 -49 -125 -4 2 -22
61 -41 130 l-33 125 -53 0 c-36 0 -53 -4 -53 -12z"/>
<path d="M3657 873 c-4 -3 -7 -102 -7 -220 l0 -213 128 0 c143 0 188 13 234
68 38 45 51 94 46 172 -5 85 -40 143 -108 178 -39 19 -60 22 -165 22 -67 0
-125 -3 -128 -7z m243 -111 c47 -23 67 -79 51 -140 -16 -56 -46 -75 -124 -76
l-62 -1 -3 104 c-1 58 0 111 2 118 8 19 94 16 136 -5z"/>
</g>
</svg>
